PathFileType	4	(X/Y/Z)	./resultDataOpenSim/trcMotMarkerGrf/sub06/qtm-04-03.trc
DataRate	CameraRate	NumFrames	NumMarkers	Units	OrigDataRate	OrigDataStartFrame	OrigNumFrames
250.000000	250.000000	12	24	m	250.000000	192	510
Frame#	Time	L.Toe.Tip			R.Toe.Tip			L.Ankle.Lat			R.Ankle.Lat			L.Ankle.Med			R.Ankle.Med			L.Heel			R.Heel			L.Knee.Lat			R.Knee.Lat			L.Knee.Med			R.Knee.Med			L.Thigh.Upper			R.Thigh.Upper			L.ASIS			R.ASIS			V.Sacral			L.Acromium			R.Acromium			C7			L.Elbow			R.Elbow			L.Wrist.Lat			R.Wrist.Lat
		X1	Y1	Z1	X2	Y2	Z2	X3	Y3	Z3	X4	Y4	Z4	X5	Y5	Z5	X6	Y6	Z6	X7	Y7	Z7	X8	Y8	Z8	X9	Y9	Z9	X10	Y10	Z10	X11	Y11	Z11	X12	Y12	Z12	X13	Y13	Z13	X14	Y14	Z14	X15	Y15	Z15	X16	Y16	Z16	X17	Y17	Z17	X18	Y18	Z18	X19	Y19	Z19	X20	Y20	Z20	X21	Y21	Z21	X22	Y22	Z22	X23	Y23	Z23	X24	Y24	Z24

192	0.764	0.070320734	-0.039726927	-0.010923348	-0.64107858	0.081871822	0.15119588	-0.05140117	-0.0097471027	-0.031432104	-0.6427779	0.21859307	0.17608149	-0.050750712	0.0049423924	0.055695795	-0.60314449	0.20255241	0.096660208	-0.12814295	-0.034391276	0.013637378	-0.66232254	0.26389765	0.1116752	0.032246145	0.35152879	-0.062372091	-0.27270815	0.30740687	0.23068769	0.016543524	0.35061845	0.058048509	-0.28092781	0.2954974	0.10109703	-0.1449703	0.70562531	-0.12491384	-0.23636427	0.66458099	0.20935233	-0.090315514	0.74089757	-0.065545155	-0.13410308	0.72555923	0.18244181	-0.29168447	0.80657416	0.047422579	-0.16962248	1.1986263	-0.15741157	-0.16298918	1.2131704	0.20552464	-0.24779055	1.2491299	0.022548828	-0.28231855	0.90865519	-0.1911577	-0.1954141	0.9085597	0.3241303	-0.20674058	0.68062469	-0.24893251	0.028314141	0.79448914	0.32813976
193	0.768	0.070332307	-0.039744	-0.010908627	-0.62677065	0.085052123	0.15254129	-0.051318494	-0.0097814437	-0.031425354	-0.62814569	0.22195434	0.17596809	-0.050653529	0.0049568247	0.055736554	-0.58867164	0.20551984	0.096494301	-0.12815172	-0.034287873	0.013651045	-0.64791273	0.26724616	0.11122793	0.03458854	0.35138548	-0.062096106	-0.25815152	0.30748407	0.23087616	0.017349854	0.35005309	0.058390407	-0.2676019	0.29628543	0.10115957	-0.13967322	0.70693176	-0.12527558	-0.22888817	0.66597455	0.20847472	-0.084778456	0.74249805	-0.066036974	-0.12917794	0.72781605	0.18286112	-0.28558746	0.80871742	0.046488848	-0.16173291	1.2003431	-0.15767136	-0.15627779	1.2148262	0.20538911	-0.24027944	1.2510117	0.022100402	-0.273705	0.90954769	-0.19160567	-0.19136982	0.90995758	0.32244471	-0.19500905	0.68214876	-0.24805844	0.030328114	0.79209032	0.32884364
194	0.772	0.070345264	-0.039748057	-0.010906204	-0.61219828	0.087848031	0.15361305	-0.051239747	-0.0097706476	-0.031412599	-0.61327912	0.22505632	0.17587886	-0.050578214	0.0049995561	0.055765453	-0.57398714	0.20844603	0.096304555	-0.12815683	-0.034174914	0.013649933	-0.63359109	0.27035327	0.11087059	0.036828515	0.35124445	-0.061716743	-0.24350622	0.30793626	0.2309967	0.017747784	0.34977771	0.058604823	-0.25411216	0.29721353	0.10113101	-0.13450073	0.70823039	-0.12560466	-0.22157086	0.66753058	0.20796047	-0.079256572	0.74414731	-0.066496876	-0.12403914	0.73006761	0.18309668	-0.27952067	0.8110866	0.045364044	-0.15393687	1.2021863	-0.15789363	-0.14966557	1.2165936	0.20532146	-0.23284455	1.2529887	0.021697355	-0.26513184	0.91055204	-0.19211126	-0.18724623	0.91143012	0.32065815	-0.18318162	0.68384413	-0.24708626	0.032190023	0.78984766	0.32951286
195	0.776	0.070357819	-0.03974587	-0.010898389	-0.59728752	0.090456607	0.15441666	-0.051175946	-0.0097192511	-0.031399262	-0.59821103	0.2279649	0.17581244	-0.050528814	0.0050671243	0.055783135	-0.5591523	0.21131162	0.096133265	-0.128159	-0.034053311	0.013638676	-0.61916686	0.27323938	0.11064195	0.038921737	0.35109867	-0.061281398	-0.22882789	0.30873963	0.23104469	0.017893271	0.34970694	0.058739744	-0.2404882	0.29830008	0.10095037	-0.12944967	0.70952477	-0.1258976	-0.2145881	0.66922996	0.20794002	-0.073733081	0.74582186	-0.066933821	-0.11859957	0.73226424	0.18309312	-0.27365238	0.81357192	0.0444168	-0.14623046	1.2041511	-0.15806936	-0.14314705	1.2184599	0.20531082	-0.22548668	1.2550605	0.021342031	-0.2565962	0.91166281	-0.19266823	-0.18311176	0.91297997	0.31880015	-0.17125044	0.68571485	-0.24601363	0.033922503	0.78776533	0.33015458
196	0.78	0.070368674	-0.039742932	-0.01087501	-0.5820021	0.093027996	0.15501873	-0.05114571	-0.0096392881	-0.031400354	-0.58296654	0.23074036	0.17578657	-0.050505171	0.0051539753	0.055790761	-0.54422225	0.2140948	0.096042233	-0.12816111	-0.033924256	0.013621584	-0.60458497	0.27594941	0.11054218	0.040822616	0.35097308	-0.06082979	-0.2141452	0.30987036	0.23101909	0.018083939	0.34982028	0.058932951	-0.22673109	0.29956827	0.10062215	-0.12449244	0.71083898	-0.1261483	-0.20806137	0.67109414	0.20841427	-0.068222003	0.74749104	-0.067356253	-0.11300007	0.73447078	0.18297553	-0.26855464	0.81611989	0.043329253	-0.13860602	1.2062322	-0.15819551	-0.13670851	1.2204178	0.20534847	-0.21819965	1.2572295	0.021035809	-0.2480947	0.91287518	-0.19326843	-0.17906418	0.91461831	0.31692017	-0.1592665	0.68774845	-0.24487002	0.035557795	0.78585028	0.33078812
197	0.784	0.070376017	-0.039740861	-0.010842637	-0.56632686	0.095601125	0.15546626	-0.051156324	-0.0095427334	-0.031424108	-0.5675662	0.23340936	0.17581947	-0.050505354	0.0052570244	0.055789607	-0.52922609	0.21678348	0.096051353	-0.12816606	-0.033790261	0.013601285	-0.58990485	0.27850041	0.11056422	0.042488944	0.35090134	-0.060399767	-0.19946543	0.31131184	0.23091929	0.018516175	0.35010555	0.059266521	-0.21281856	0.301036	0.10022443	-0.11957191	0.71220874	-0.12635589	-0.20189332	0.67317906	0.20916105	-0.062783831	0.74913209	-0.067767444	-0.10734657	0.7367364	0.18283026	-0.26456177	0.81874851	0.041781413	-0.13106358	1.2084239	-0.15827755	-0.13033452	1.2224592	0.20542964	-0.21097579	1.2594952	0.020779538	-0.23961501	0.91418129	-0.19391939	-0.17515747	0.9163582	0.3150629	-0.14731028	0.68992243	-0.24369563	0.037112683	0.78410804	0.33142505
198	0.788	0.070376926	-0.039740467	-0.010814237	-0.55027047	0.098119905	0.15576849	-0.051188247	-0.0094330989	-0.031455131	-0.55204098	0.2359581	0.17591686	-0.050529831	0.0053773798	0.055780223	-0.51414634	0.21935977	0.096090744	-0.12817595	-0.033655674	0.013577659	-0.57519775	0.28089137	0.11071317	0.043900422	0.35090537	-0.060016978	-0.18479682	0.3130541	0.23074386	0.019191572	0.35051879	0.059719046	-0.19877164	0.30272205	0.099803783	-0.11461955	0.71366064	-0.12652207	-0.19583426	0.67548879	0.20989015	-0.057480779	0.7507416	-0.068166693	-0.10166235	0.73907217	0.18266844	-0.26095759	0.82147513	0.04022685	-0.12360967	1.2107179	-0.158321	-0.12401543	1.2245727	0.20555098	-0.20380965	1.261845	0.020573524	-0.23112886	0.9155727	-0.19464722	-0.17137909	0.9182069	0.31325144	-0.13542972	0.69222154	-0.2425105	0.038545978	0.78253849	0.33204847
199	0.792	0.070368846	-0.039740908	-0.010798136	-0.53386102	0.10050664	0.15592229	-0.051217435	-0.0093104832	-0.031472377	-0.53645809	0.23833492	0.17606039	-0.05058021	0.0055147535	0.055762386	-0.49891897	0.22178739	0.096038023	-0.12819193	-0.033523904	0.013549565	-0.56050119	0.28310997	0.11097129	0.045097166	0.35099467	-0.059664255	-0.17015206	0.31509075	0.23049341	0.019969741	0.35098882	0.060203389	-0.18465437	0.30466342	0.09932407	-0.10962029	0.71519282	-0.1266441	-0.18969175	0.67797382	0.21043499	-0.052297271	0.75233476	-0.068554375	-0.095981974	0.74149683	0.18251477	-0.256458	0.82426658	0.039482607	-0.11624494	1.2131048	-0.15832133	-0.1177415	1.2267448	0.20570696	-0.19669756	1.2642589	0.020417592	-0.22260653	0.91704551	-0.19546646	-0.16768046	0.92016515	0.3114954	-0.12363443	0.69463873	-0.2413145	0.039776218	0.78113248	0.33262471
200	0.796	0.070354748	-0.039738903	-0.010794623	-0.51713411	0.10272471	0.15593747	-0.051249349	-0.0091808702	-0.031479959	-0.52090301	0.24047537	0.17620857	-0.050655678	0.0056629572	0.055736103	-0.48350626	0.22405117	0.095876297	-0.12821398	-0.033394935	0.013517868	-0.54582305	0.28511354	0.11128461	0.04616153	0.3511683	-0.059295754	-0.15554222	0.31741697	0.2301721	0.020686259	0.35144503	0.060634733	-0.17048394	0.30690142	0.098731632	-0.10465961	0.71677572	-0.12672384	-0.18340744	0.68059689	0.2107787	-0.047130477	0.75393638	-0.068938727	-0.090339085	0.74402479	0.18240547	-0.25068112	0.8270702	0.039663443	-0.10896103	1.2155772	-0.15826922	-0.11149615	1.2289603	0.2058884	-0.18963488	1.2667204	0.020312586	-0.21405536	0.91859699	-0.19633089	-0.16401524	0.92222934	0.30980327	-0.11189363	0.69717564	-0.24008523	0.040785542	0.77987522	0.33313172
201	0.8	0.070343146	-0.039732338	-0.010796168	-0.50013617	0.10477851	0.15583901	-0.051305314	-0.0090506192	-0.031496606	-0.50543056	0.24234095	0.17632037	-0.050756717	0.0058138133	0.055702865	-0.46798408	0.22619313	0.095772919	-0.12824142	-0.033265961	0.013483071	-0.53116875	0.28685931	0.11160039	0.047141212	0.35141043	-0.058893285	-0.1409758	0.3200289	0.22978796	0.02126936	0.35184953	0.060990983	-0.15619632	0.30944421	0.098038024	-0.099855283	0.71838054	-0.12677275	-0.17702027	0.68334973	0.21099638	-0.041877588	0.7555673	-0.069334309	-0.08462613	0.74659811	0.18227487	-0.24439224	0.82984986	0.040111665	-0.10174877	1.2181287	-0.15816749	-0.10526079	1.2312073	0.20608493	-0.18261465	1.269213	0.020256575	-0.20551231	0.92021999	-0.19716504	-0.16035698	0.92439433	0.30818367	-0.10013526	0.69984512	-0.23877851	0.041649399	0.77875812	0.33356842
202	0.804	0.070334071	-0.03972512	-0.010793821	-0.48291805	0.10667569	0.15565767	-0.051383351	-0.0089168758	-0.031522476	-0.49004235	0.24393273	0.17638037	-0.050894572	0.005959492	0.055667534	-0.45248191	0.22825825	0.095847963	-0.12827333	-0.033132791	0.013442818	-0.51655287	0.28834388	0.11189658	0.048003262	0.35169084	-0.058490041	-0.12646009	0.32292077	0.22935173	0.021738902	0.35220167	0.061305609	-0.14176466	0.31226593	0.09731011	-0.095191831	0.72001665	-0.12680361	-0.17060822	0.68623124	0.21118323	-0.03652069	0.75723195	-0.069745035	-0.078537861	0.74906996	0.18190624	-0.23839087	0.83259371	0.040193631	-0.094598511	1.2207499	-0.1580315	-0.099024198	1.2334815	0.20628876	-0.17563065	1.2717189	0.020239868	-0.19695002	0.92189772	-0.19800416	-0.15669985	0.92665703	0.30664217	-0.088347942	0.70264533	-0.23738644	0.042439267	0.77778424	0.33394719
203	0.808	0.070317156	-0.039723288	-0.010787065	-0.46551424	0.10840073	0.15542858	-0.051460638	-0.00877239	-0.031541193	-0.47469313	0.24527748	0.17640554	-0.051085934	0.0060925598	0.055637553	-0.43704054	0.2302201	0.095977523	-0.1283079	-0.032991445	0.013396442	-0.50198332	0.28957087	0.11217795	0.048676954	0.35197739	-0.058132584	-0.11200054	0.32608408	0.22887433	0.022127391	0.35251604	0.061615626	-0.12728334	0.31533736	0.096593597	-0.090509954	0.72172537	-0.12683529	-0.16422724	0.68923113	0.21139215	-0.031124508	0.75891941	-0.07015539	-0.071837574	0.75133357	0.1811244	-0.23284493	0.8353202	0.039765283	-0.087495277	1.2234275	-0.15787246	-0.092784482	1.2357813	0.20649473	-0.16868	1.2742289	0.020250177	-0.18827483	0.92360928	-0.19898122	-0.15304662	0.92901736	0.30517774	-0.076625098	0.70554566	-0.2359618	0.043172326	0.77695853	0.33428229
